<svg xmlns="http://www.w3.org/2000/svg" xmlns:xlink="http://www.w3.org/1999/xlink" viewBox="0 0 512 512" width="512" height="512" style="width: 100%; height: 100%; transform: translate3d(0,0,0); content-visibility: visible;" preserveAspectRatio="xMidYMid meet"><defs><clipPath id="__lottie_element_2"><rect width="512" height="512" x="0" y="0"></rect></clipPath><clipPath id="__lottie_element_4"><path d="M0,0 L100,0 L100,100 L0,100z"></path></clipPath></defs><g clip-path="url(#__lottie_element_2)"><g clip-path="url(#__lottie_element_4)" style="display: block;" transform="matrix(5.119999885559082,0,0,5.119999885559082,0,0)" opacity="1"><g style="display: block;" transform="matrix(1,0,0,1,0,0)" opacity="1"><g opacity="1" transform="matrix(1,0,0,1,0,0)"><path stroke-linecap="round" stroke-linejoin="round" fill-opacity="0" stroke="rgb(255,255,255)" stroke-opacity="1" stroke-width="5" d=" M39.08399963378906,37.90599822998047 C39.08399963378906,37.90599822998047 39.08399963378906,50.94499969482422 39.08399963378906,50.94499969482422 M45.63199996948242,44.369998931884766 C45.63199996948242,44.369998931884766 32.53300094604492,44.369998931884766 32.53300094604492,44.369998931884766"></path></g><g opacity="1" transform="matrix(1,0,0,1,0,0)"><path stroke-linecap="round" stroke-linejoin="round" fill-opacity="0" stroke="rgb(255,255,255)" stroke-opacity="1" stroke-width="5" d=" M30.636999130249023,68.20600128173828 C30.636999130249023,68.20600128173828 35.12099838256836,62.67300033569336 35.12099838256836,62.67300033569336 C36.73361587524414,60.68206787109375 39.16290283203125,59.52333450317383 41.724998474121094,59.52299880981445 C41.724998474121094,59.52299880981445 58.275001525878906,59.52299880981445 58.275001525878906,59.52299880981445 C60.83709716796875,59.52333450317383 63.26638412475586,60.68206787109375 64.87899780273438,62.67300033569336 C64.87899780273438,62.67300033569336 69.36299896240234,68.20600128173828 69.36299896240234,68.20600128173828 C72.26899719238281,71.79299926757812 77.5780029296875,72.26899719238281 81.10099792480469,69.29000091552734 C83.44577026367188,67.30590057373047 84.48429107666016,64.1624526977539 83.78299713134766,61.172000885009766 C81.81492614746094,52.84965515136719 78.9801025390625,44.75642776489258 75.32499694824219,37.025001525878906 C75.32499694824219,37.025001525878906 74.21199798583984,34.66999816894531 74.21199798583984,34.66999816894531 C73.20226287841797,32.532814025878906 71.22917175292969,31.00240707397461 68.90799713134766,30.555999755859375 C56.41727828979492,28.154804229736328 43.58272171020508,28.154804229736328 31.091999053955078,30.555999755859375 C28.77082633972168,31.00240707397461 26.79773712158203,32.532814025878906 25.788000106811523,34.66999816894531 C25.788000106811523,34.66999816894531 24.674999237060547,37.025001525878906 24.674999237060547,37.025001525878906 C21.02017593383789,44.75678634643555 18.185684204101562,52.8503532409668 16.218000411987305,61.17300033569336 C15.516874313354492,64.16294860839844 16.554960250854492,67.30585479736328 18.89900016784668,69.29000091552734 C22.422000885009766,72.26899719238281 27.729999542236328,71.79299926757812 30.636999130249023,68.20600128173828 C30.636999130249023,68.20600128173828 30.636999130249023,68.20600128173828 30.636999130249023,68.20600128173828z"></path></g><g opacity="1" transform="matrix(1,0,0,1,0,0)"><path fill="rgb(255,255,255)" fill-opacity="1" d=" M58.183998107910156,44.369998931884766 C60.274620056152344,44.366703033447266 61.998069763183594,46.0833854675293 62.00299835205078,48.17399978637695 C62.00299835205078,50.27399826049805 60.29199981689453,51.97800064086914 58.183998107910156,51.97800064086914 C56.09375762939453,51.98074722290039 54.370933532714844,50.26423645019531 54.36600112915039,48.17399978637695 C54.370933532714844,46.08393096923828 56.093929290771484,44.367706298828125 58.183998107910156,44.37099838256836 C58.183998107910156,44.37099838256836 58.183998107910156,44.369998931884766 58.183998107910156,44.369998931884766z M65.8280029296875,36.74599838256836 C67.91786193847656,36.74325180053711 69.64051818847656,38.45914077758789 69.64600372314453,40.54899978637695 C69.64600372314453,42.64899826049805 67.93599700927734,44.35300064086914 65.8280029296875,44.35300064086914 C63.73738098144531,44.35629653930664 62.01393127441406,42.639617919921875 62.00899887084961,40.54899978637695 C62.01448059082031,38.458763122558594 63.73775863647461,36.74270248413086 65.8280029296875,36.74599838256836 C65.8280029296875,36.74599838256836 65.8280029296875,36.74599838256836 65.8280029296875,36.74599838256836z"></path></g></g></g></g></svg>